0
SECTION
2
HEADER
9
$INSUNITS
70
4
9
$ACADVER
1
AC1014
9
$HANDSEED
5
FFFF
0
ENDSEC
0
SECTION
2
TABLES
0
TABLE
2
VPORT
5
8
100
AcDbSymbolTable
0
ENDTAB
0
TABLE
2
LTYPE
5
5
100
AcDbSymbolTable
0
LTYPE
5
14
100
AcDbSymbolTableRecord
100
AcDbLinetypeTableRecord
2
BYBLOCK
70
0
0
LTYPE
5
15
100
AcDbSymbolTableRecord
100
AcDbLinetypeTableRecord
2
BYLAYER
70
0
0
ENDTAB
0
TABLE
2
LAYER
5
2
100
AcDbSymbolTable
70
2
0
LAYER
5
50
100
AcDbSymbolTableRecord
100
AcDbLayerTableRecord
2
0
70
0
6
CONTINUOUS
0
ENDTAB
0
TABLE
2
STYLE
5
3
100
AcDbSymbolTable
70
1
0
STYLE
5
11
100
AcDbSymbolTableRecord
100
AcDbTextStyleTableRecord
2
STANDARD
70
0
0
ENDTAB
0
TABLE
2
VIEW
5
6
100
AcDbSymbolTable
70
0
0
ENDTAB
0
TABLE
2
UCS
5
7
100
AcDbSymbolTable
70
0
0
ENDTAB
0
TABLE
2
APPID
5
9
100
AcDbSymbolTable
70
2
0
APPID
5
12
100
AcDbSymbolTableRecord
100
AcDbRegAppTableRecord
2
ACAD
70
0
0
ENDTAB
0
TABLE
2
DIMSTYLE
5
A
100
AcDbSymbolTable
70
1
0
ENDTAB
0
TABLE
2
BLOCK_RECORD
5
1
100
AcDbSymbolTable
70
1
0
BLOCK_RECORD
5
1F
100
AcDbSymbolTableRecord
100
AcDbBlockTableRecord
2
*MODEL_SPACE
0
BLOCK_RECORD
5
1B
100
AcDbSymbolTableRecord
100
AcDbBlockTableRecord
2
*PAPER_SPACE
0
ENDTAB
0
ENDSEC
0
SECTION
2
BLOCKS
0
BLOCK
5
20
100
AcDbEntity
100
AcDbBlockBegin
2
*MODEL_SPACE
0
ENDBLK
5
21
100
AcDbEntity
100
AcDbBlockEnd
0
BLOCK
5
1C
100
AcDbEntity
100
AcDbBlockBegin
2
*PAPER_SPACE
0
ENDBLK
5
1D
100
AcDbEntity
100
AcDbBlockEnd
0
ENDSEC
0
SECTION
2
ENTITIES
0
LINE
5
100
100
AcDbEntity
8
0
100
AcDbLine
10
0
20
0
30
0
11
208
21
-8.7052033486303061e-31
31
0
0
LINE
5
101
100
AcDbEntity
8
0
100
AcDbLine
10
208
20
174.00000000000003
30
0
11
0
21
174.00000000000003
31
0
0
LINE
5
102
100
AcDbEntity
8
0
100
AcDbLine
10
0
20
174.00000000000003
30
0
11
0
21
0
31
0
0
LINE
5
103
100
AcDbEntity
8
0
100
AcDbLine
10
0
20
0
30
0
11
10
21
0
31
0
0
LINE
5
104
100
AcDbEntity
8
0
100
AcDbLine
10
0
20
10
30
0
11
208
21
10.000000000000039
31
0
0
LINE
5
105
100
AcDbEntity
8
0
100
AcDbLine
10
0
20
33.5
30
0
11
208
21
33.500000000000043
31
0
0
LINE
5
106
100
AcDbEntity
8
0
100
AcDbLine
10
0
20
53.5
30
0
11
208
21
53.500000000000021
31
0
0
LINE
5
107
100
AcDbEntity
8
0
100
AcDbLine
10
0
20
77
30
0
11
208
21
77.000000000000014
31
0
0
LINE
5
108
100
AcDbEntity
8
0
100
AcDbLine
10
0
20
97
30
0
11
208
21
97.000000000000043
31
0
0
LINE
5
109
100
AcDbEntity
8
0
100
AcDbLine
10
0
20
97
30
0
11
0
21
120.49999999999999
31
0
0
LINE
5
110
100
AcDbEntity
8
0
100
AcDbLine
10
0
20
120.49999999999999
30
0
11
208
21
120.50000000000004
31
0
0
LINE
5
111
100
AcDbEntity
8
0
100
AcDbLine
10
0
20
140.5
30
0
11
208
21
140.50000000000006
31
0
0
LINE
5
112
100
AcDbEntity
8
0
100
AcDbLine
10
0
20
164
30
0
11
208
21
164
31
0
0
LINE
5
113
100
AcDbEntity
8
0
100
AcDbLine
10
31
20
320
30
0
11
211
21
320
31
0
0
LINE
5
114
100
AcDbEntity
8
0
100
AcDbLine
10
211
20
320
30
0
11
409.5
21
320
31
0
0
LINE
5
115
100
AcDbEntity
8
0
100
AcDbLine
10
34
20
247
30
0
11
44
21
247
31
0
0
LINE
5
116
100
AcDbEntity
8
0
100
AcDbLine
10
44
20
247
30
0
11
44
21
250
31
0
0
LWPOLYLINE
5
117
100
AcDbEntity
8
0
100
AcDbPolyline
90
4
70
1
43
0.0
10
67.5
20
247
10
67.5
20
250
10
87.5
20
250
10
87.5
20
247
0
LWPOLYLINE
5
118
100
AcDbEntity
8
0
100
AcDbPolyline
90
4
70
1
43
0.0
10
111
20
247
10
111
20
250
10
131
20
250
10
131
20
247
0
LWPOLYLINE
5
119
100
AcDbEntity
8
0
100
AcDbPolyline
90
4
70
1
43
0.0
10
154.5
20
247
10
154.5
20
250
10
174.5
20
250
10
174.5
20
247
0
LWPOLYLINE
5
120
100
AcDbEntity
8
0
100
AcDbPolyline
90
4
70
1
43
0.0
10
198
20
247
10
198
20
250
10
208
20
250
10
208
20
247
0
LINE
5
121
100
AcDbEntity
8
0
100
AcDbLine
10
34
20
250
30
0
11
44
21
250
31
0
0
LWPOLYLINE
5
122
100
AcDbEntity
8
0
100
AcDbPolyline
90
4
70
1
43
0.0
10
44
20
298
10
44
20
295
10
67.5
20
295
10
67.5
20
298
0
LWPOLYLINE
5
123
100
AcDbEntity
8
0
100
AcDbPolyline
90
4
70
1
43
0.0
10
87.5
20
298
10
87.5
20
295
10
111
20
295
10
111
20
298
0
LWPOLYLINE
5
124
100
AcDbEntity
8
0
100
AcDbPolyline
90
4
70
1
43
0.0
10
131
20
298
10
131
20
295
10
154
20
295
10
154
20
298
0
LWPOLYLINE
5
125
100
AcDbEntity
8
0
100
AcDbPolyline
90
4
70
1
43
0.0
10
174.5
20
298
10
174.5
20
295
10
198
20
295
10
198
20
298
0
LINE
5
126
100
AcDbEntity
8
0
100
AcDbLine
10
211
20
180
30
0
11
208
21
180
31
0
0
LINE
5
127
100
AcDbEntity
8
0
100
AcDbLine
10
208
20
180
30
0
11
208
21
218
31
0
0
LINE
5
128
100
AcDbEntity
8
0
100
AcDbLine
10
208
20
218
30
0
11
211
21
218
31
0
0
LINE
5
129
100
AcDbEntity
8
0
100
AcDbLine
10
211
20
218
30
0
11
211
21
238
31
0
0
LINE
5
130
100
AcDbEntity
8
0
100
AcDbLine
10
211
20
238
30
0
11
208
21
238
31
0
0
LINE
5
131
100
AcDbEntity
8
0
100
AcDbLine
10
208
20
238
30
0
11
208
21
258
31
0
0
LINE
5
132
100
AcDbEntity
8
0
100
AcDbLine
10
208
20
258
30
0
11
211
21
258
31
0
0
LINE
5
133
100
AcDbEntity
8
0
100
AcDbLine
10
211
20
278
30
0
11
208
21
278
31
0
0
LINE
5
134
100
AcDbEntity
8
0
100
AcDbLine
10
208
20
278
30
0
11
208
21
298
31
0
0
LINE
5
135
100
AcDbEntity
8
0
100
AcDbLine
10
208
20
298
30
0
11
211
21
298
31
0
0
LINE
5
136
100
AcDbEntity
8
0
100
AcDbLine
10
211
20
320
30
0
11
211
21
298
31
0
0
LINE
5
137
100
AcDbEntity
8
0
100
AcDbLine
10
211
20
278
30
0
11
211
21
258
31
0
0
LINE
5
138
100
AcDbEntity
8
0
100
AcDbLine
10
208
20
218
30
0
11
104.99999999999999
21
218
31
0
0
LINE
5
139
100
AcDbEntity
8
0
100
AcDbLine
10
104.99999999999999
20
218
30
0
11
104.99999999999999
21
180
31
0
0
LINE
5
140
100
AcDbEntity
8
0
100
AcDbLine
10
409.50000000000011
20
258
30
0
11
412.50000000000006
21
258
31
0
0
LINE
5
141
100
AcDbEntity
8
0
100
AcDbLine
10
412.50000000000006
20
258
30
0
11
412.5
21
238
31
0
0
LINE
5
142
100
AcDbEntity
8
0
100
AcDbLine
10
412.5
20
238
30
0
11
409.50000000000011
21
238
31
0
0
LINE
5
143
100
AcDbEntity
8
0
100
AcDbLine
10
409.50000000000011
20
278
30
0
11
412.50000000000006
21
278
31
0
0
LINE
5
144
100
AcDbEntity
8
0
100
AcDbLine
10
412.50000000000006
20
278
30
0
11
412.50000000000006
21
298
31
0
0
LINE
5
145
100
AcDbEntity
8
0
100
AcDbLine
10
412.50000000000006
20
298
30
0
11
409.50000000000011
21
298
31
0
0
LINE
5
146
100
AcDbEntity
8
0
100
AcDbLine
10
409.50000000000011
20
238
30
0
11
409.50000000000011
21
218
31
0
0
LINE
5
147
100
AcDbEntity
8
0
100
AcDbLine
10
409.50000000000011
20
218
30
0
11
412.50000000000006
21
218
31
0
0
LINE
5
148
100
AcDbEntity
8
0
100
AcDbLine
10
412.50000000000006
20
218
30
0
11
412.50000000000006
21
198
31
0
0
LINE
5
149
100
AcDbEntity
8
0
100
AcDbLine
10
412.50000000000006
20
198
30
0
11
409.50000000000011
21
198
31
0
0
LINE
5
150
100
AcDbEntity
8
0
100
AcDbLine
10
409.50000000000011
20
320
30
0
11
409.50000000000011
21
298
31
0
0
LINE
5
151
100
AcDbEntity
8
0
100
AcDbLine
10
409.50000000000011
20
278
30
0
11
409.50000000000011
21
258
31
0
0
LINE
5
152
100
AcDbEntity
8
0
100
AcDbLine
10
409.50000000000011
20
238
30
0
11
409.50000000000011
21
218
31
0
0
LINE
5
153
100
AcDbEntity
8
0
100
AcDbLine
10
409.50000000000011
20
198
30
0
11
409.50000000000011
21
180
31
0
0
LINE
5
154
100
AcDbEntity
8
0
100
AcDbLine
10
33.999999999999972
20
238
30
0
11
31.000000000000071
21
238
31
0
0
LINE
5
155
100
AcDbEntity
8
0
100
AcDbLine
10
31.000000000000071
20
258
30
0
11
34.000000000000043
21
258
31
0
0
LINE
5
156
100
AcDbEntity
8
0
100
AcDbLine
10
31.000000000000071
20
278
30
0
11
34.000000000000043
21
278
31
0
0
LINE
5
157
100
AcDbEntity
8
0
100
AcDbLine
10
34.000000000000043
20
278
30
0
11
34.000000000000043
21
298
31
0
0
LINE
5
158
100
AcDbEntity
8
0
100
AcDbLine
10
34.000000000000043
20
298
30
0
11
31.000000000000071
21
298
31
0
0
LINE
5
159
100
AcDbEntity
8
0
100
AcDbLine
10
31.000000000000071
20
218
30
0
11
34.000000000000043
21
218
31
0
0
LINE
5
160
100
AcDbEntity
8
0
100
AcDbLine
10
34.000000000000043
20
198
30
0
11
31.000000000000071
21
198
31
0
0
LINE
5
161
100
AcDbEntity
8
0
100
AcDbLine
10
31.000000000000071
20
198
30
0
11
31.000000000000071
21
180
31
0
0
LINE
5
162
100
AcDbEntity
8
0
100
AcDbLine
10
34.000000000000043
20
218
30
0
11
34.000000000000043
21
198
31
0
0
LINE
5
163
100
AcDbEntity
8
0
100
AcDbLine
10
31.000000000000071
20
238
30
0
11
31.000000000000071
21
218
31
0
0
LINE
5
164
100
AcDbEntity
8
0
100
AcDbLine
10
31
20
320
30
0
11
31.000000000000071
21
298
31
0
0
LINE
5
165
100
AcDbEntity
8
0
100
AcDbLine
10
31.000000000000071
20
278
30
0
11
31.000000000000071
21
258
31
0
0
LINE
5
166
100
AcDbEntity
8
0
100
AcDbLine
10
31
20
180
30
0
11
104.99999999999999
21
180
31
0
0
LWPOLYLINE
5
167
100
AcDbEntity
8
0
100
AcDbPolyline
90
4
70
1
43
0.0
10
174.5
20
387
10
154.5
20
387
10
154.5
20
390
10
174.5
20
390
0
LWPOLYLINE
5
168
100
AcDbEntity
8
0
100
AcDbPolyline
90
4
70
1
43
0.0
10
198
20
387
10
198
20
390
10
208
20
390
10
208
20
387
0
LINE
5
169
100
AcDbEntity
8
0
100
AcDbLine
10
31
20
460
30
0
11
211
21
460
31
0
0
LINE
5
170
100
AcDbEntity
8
0
100
AcDbLine
10
412.50000000000006
20
338
30
0
11
409.50000000000011
21
338
31
0
0
LINE
5
171
100
AcDbEntity
8
0
100
AcDbLine
10
412.50000000000006
20
358
30
0
11
412.50000000000006
21
338
31
0
0
LINE
5
172
100
AcDbEntity
8
0
100
AcDbLine
10
409.50000000000011
20
358
30
0
11
412.50000000000006
21
358
31
0
0
LINE
5
173
100
AcDbEntity
8
0
100
AcDbLine
10
409.50000000000011
20
418
30
0
11
409.50000000000011
21
398
31
0
0
LINE
5
174
100
AcDbEntity
8
0
100
AcDbLine
10
409.50000000000011
20
378
30
0
11
409.50000000000011
21
358
31
0
0
LINE
5
175
100
AcDbEntity
8
0
100
AcDbLine
10
409.50000000000011
20
378
30
0
11
409.50000000000011
21
358
31
0
0
LINE
5
176
100
AcDbEntity
8
0
100
AcDbLine
10
409.50000000000011
20
338
30
0
11
409.50000000000011
21
320
31
0
0
LINE
5
177
100
AcDbEntity
8
0
100
AcDbLine
10
409.50000000000011
20
460
30
0
11
409.50000000000011
21
438
31
0
0
LINE
5
178
100
AcDbEntity
8
0
100
AcDbLine
10
412.50000000000006
20
438
30
0
11
409.50000000000011
21
438
31
0
0
LINE
5
179
100
AcDbEntity
8
0
100
AcDbLine
10
409.50000000000011
20
418
30
0
11
412.50000000000006
21
418
31
0
0
LINE
5
180
100
AcDbEntity
8
0
100
AcDbLine
10
412.5
20
378
30
0
11
409.50000000000011
21
378
31
0
0
LINE
5
181
100
AcDbEntity
8
0
100
AcDbLine
10
412.50000000000006
20
398
30
0
11
412.5
21
378
31
0
0
LINE
5
182
100
AcDbEntity
8
0
100
AcDbLine
10
412.50000000000006
20
418
30
0
11
412.50000000000006
21
438
31
0
0
LINE
5
183
100
AcDbEntity
8
0
100
AcDbLine
10
409.50000000000011
20
398
30
0
11
412.50000000000006
21
398
31
0
0
LINE
5
184
100
AcDbEntity
8
0
100
AcDbLine
10
211
20
460
30
0
11
409.49999999999994
21
460
31
0
0
LINE
5
185
100
AcDbEntity
8
0
100
AcDbLine
10
34.000000000000043
20
438
30
0
11
31.000000000000071
21
438
31
0
0
LINE
5
186
100
AcDbEntity
8
0
100
AcDbLine
10
44
20
387
30
0
11
44
21
390
31
0
0
LINE
5
187
100
AcDbEntity
8
0
100
AcDbLine
10
31.000000000000071
20
398
30
0
11
34.000000000000043
21
398
31
0
0
LINE
5
188
100
AcDbEntity
8
0
100
AcDbLine
10
33.999999999999972
20
378
30
0
11
31.000000000000071
21
378
31
0
0
LINE
5
189
100
AcDbEntity
8
0
100
AcDbLine
10
31.000000000000071
20
418
30
0
11
34.000000000000043
21
418
31
0
0
LWPOLYLINE
5
190
100
AcDbEntity
8
0
100
AcDbPolyline
90
4
70
1
43
0.0
10
87.5
20
390
10
67.5
20
390
10
67.5
20
387
10
87.5
20
387
0
LINE
5
191
100
AcDbEntity
8
0
100
AcDbLine
10
31.000000000000071
20
418
30
0
11
31.000000000000071
21
398
31
0
0
LWPOLYLINE
5
192
100
AcDbEntity
8
0
100
AcDbPolyline
90
4
70
1
43
0.0
10
131
20
387
10
111
20
387
10
111
20
390
10
131
20
390
0
LWPOLYLINE
5
193
100
AcDbEntity
8
0
100
AcDbPolyline
90
4
70
1
43
0.0
10
67.5
20
435
10
44
20
435
10
44
20
438
10
67.5
20
438
0
LINE
5
194
100
AcDbEntity
8
0
100
AcDbLine
10
34
20
390
30
0
11
44
21
390
31
0
0
LWPOLYLINE
5
195
100
AcDbEntity
8
0
100
AcDbPolyline
90
4
70
1
43
0.0
10
111
20
435
10
87.5
20
435
10
87.5
20
438
10
111
20
438
0
LINE
5
196
100
AcDbEntity
8
0
100
AcDbLine
10
31.000000000000071
20
460
30
0
11
31.000000000000071
21
438
31
0
0
LINE
5
197
100
AcDbEntity
8
0
100
AcDbLine
10
31.000000000000071
20
358
30
0
11
34.000000000000043
21
358
31
0
0
LINE
5
198
100
AcDbEntity
8
0
100
AcDbLine
10
34.000000000000043
20
338
30
0
11
31.000000000000071
21
338
31
0
0
LINE
5
199
100
AcDbEntity
8
0
100
AcDbLine
10
34.000000000000043
20
358
30
0
11
34.000000000000043
21
338
31
0
0
LINE
5
200
100
AcDbEntity
8
0
100
AcDbLine
10
34
20
387
30
0
11
44
21
387
31
0
0
LINE
5
201
100
AcDbEntity
8
0
100
AcDbLine
10
34.000000000000043
20
418
30
0
11
34.000000000000043
21
438
31
0
0
LINE
5
202
100
AcDbEntity
8
0
100
AcDbLine
10
31.000000000000071
20
338
30
0
11
31.000000000000071
21
320
31
0
0
LINE
5
203
100
AcDbEntity
8
0
100
AcDbLine
10
31.000000000000071
20
378
30
0
11
31.000000000000071
21
358
31
0
0
LWPOLYLINE
5
204
100
AcDbEntity
8
0
100
AcDbPolyline
90
4
70
1
43
0.0
10
154
20
435
10
154
20
438
10
131
20
438
10
131
20
435
0
LINE
5
205
100
AcDbEntity
8
0
100
AcDbLine
10
211
20
378
30
0
11
211
21
358
31
0
0
LINE
5
206
100
AcDbEntity
8
0
100
AcDbLine
10
211
20
358
30
0
11
211
21
378
31
0
0
LINE
5
207
100
AcDbEntity
8
0
100
AcDbLine
10
211
20
378
30
0
11
208
21
378
31
0
0
LINE
5
208
100
AcDbEntity
8
0
100
AcDbLine
10
208
20
378
30
0
11
208
21
398
31
0
0
LINE
5
209
100
AcDbEntity
8
0
100
AcDbLine
10
211
20
418
30
0
11
211
21
398
31
0
0
LINE
5
210
100
AcDbEntity
8
0
100
AcDbLine
10
211
20
418
30
0
11
208
21
418
31
0
0
LWPOLYLINE
5
211
100
AcDbEntity
8
0
100
AcDbPolyline
90
4
70
1
43
0.0
10
198
20
435
10
198
20
438
10
174.5
20
438
10
174.5
20
435
0
LINE
5
212
100
AcDbEntity
8
0
100
AcDbLine
10
208
20
438
30
0
11
211
21
438
31
0
0
LINE
5
213
100
AcDbEntity
8
0
100
AcDbLine
10
208
20
418
30
0
11
208
21
438
31
0
0
LINE
5
214
100
AcDbEntity
8
0
100
AcDbLine
10
208
20
398
30
0
11
211
21
398
31
0
0
LINE
5
215
100
AcDbEntity
8
0
100
AcDbLine
10
211
20
460
30
0
11
211
21
438
31
0
0
LINE
5
216
100
AcDbEntity
8
0
100
AcDbLine
10
211
20
398
30
0
11
211
21
418
31
0
0
LINE
5
217
100
AcDbEntity
8
0
100
AcDbLine
10
211
20
378
30
0
11
211
21
358
31
0
0
LINE
5
218
100
AcDbEntity
8
0
100
AcDbLine
10
211
20
358
30
0
11
208
21
358
31
0
0
LINE
5
219
100
AcDbEntity
8
0
100
AcDbLine
10
208
20
358
30
0
11
208
21
338
31
0
0
LINE
5
220
100
AcDbEntity
8
0
100
AcDbLine
10
208
20
338
30
0
11
211
21
338
31
0
0
LINE
5
221
100
AcDbEntity
8
0
100
AcDbLine
10
211
20
320
30
0
11
211
21
338
31
0
0
LINE
5
222
100
AcDbEntity
8
0
100
AcDbLine
10
34.000000000000043
20
258
30
0
11
34
21
250
31
0
0
LINE
5
223
100
AcDbEntity
8
0
100
AcDbLine
10
34
20
247
30
0
11
33.999999999999972
21
238
31
0
0
LINE
5
224
100
AcDbEntity
8
0
100
AcDbLine
10
34.000000000000043
20
398
30
0
11
34
21
390
31
0
0
LINE
5
225
100
AcDbEntity
8
0
100
AcDbLine
10
34
20
387
30
0
11
33.999999999999972
21
378
31
0
0
CIRCLE
5
226
100
AcDbEntity
8
0
100
AcDbCircle
10
387.50000000000006
20
208
30
0
40
1.5000000000000169
0
CIRCLE
5
227
100
AcDbEntity
8
0
100
AcDbCircle
10
230
20
199.5
30
0
40
1.9999999999999929
0
LWPOLYLINE
5
228
100
AcDbEntity
8
0
100
AcDbPolyline
90
4
70
1
43
0.0
10
412.5
20
0
10
208
20
0
10
208
20
180
10
412.5
20
180
0
LINE
5
229
100
AcDbEntity
8
0
100
AcDbLine
10
409.49999999999994
20
460
30
0
11
409.49999999999994
21
528
31
0
0
LINE
5
230
100
AcDbEntity
8
0
100
AcDbLine
10
409.49999999999994
20
528
30
0
11
331.49999187886704
21
528
31
0
0
LINE
5
231
100
AcDbEntity
8
0
100
AcDbLine
10
328.49999999999994
20
525.00000812113285
30
0
11
328.49999999999994
21
460
31
0
0
LWPOLYLINE
5
232
100
AcDbEntity
8
0
100
AcDbPolyline
90
4
70
1
43
0.0
10
344.12499999999994
20
520.5
10
340.5
20
520.5
10
340.5
20
516.875
10
344.12499999999994
20
516.875
0
LWPOLYLINE
5
233
100
AcDbEntity
8
0
100
AcDbPolyline
90
4
70
1
43
0.0
10
351.75
20
520.5
10
348.125
20
520.5
10
348.125
20
516.875
10
351.75
20
516.875
0
LWPOLYLINE
5
234
100
AcDbEntity
8
0
100
AcDbPolyline
90
4
70
1
43
0.0
10
359.375
20
520.5
10
355.74999999999994
20
520.5
10
355.74999999999994
20
516.875
10
359.375
20
516.875
0
LWPOLYLINE
5
235
100
AcDbEntity
8
0
100
AcDbPolyline
90
4
70
1
43
0.0
10
366.99999999999994
20
520.5
10
363.375
20
520.5
10
363.375
20
516.875
10
366.99999999999994
20
516.875
0
LWPOLYLINE
5
236
100
AcDbEntity
8
0
100
AcDbPolyline
90
4
70
1
43
0.0
10
374.625
20
520.5
10
370.99999999999994
20
520.5
10
370.99999999999994
20
516.875
10
374.625
20
516.875
0
LWPOLYLINE
5
237
100
AcDbEntity
8
0
100
AcDbPolyline
90
4
70
1
43
0.0
10
382.24999999999994
20
520.5
10
378.625
20
520.5
10
378.625
20
516.875
10
382.24999999999994
20
516.875
0
LWPOLYLINE
5
238
100
AcDbEntity
8
0
100
AcDbPolyline
90
4
70
1
43
0.0
10
389.875
20
520.5
10
386.25
20
520.5
10
386.25
20
516.875
10
389.875
20
516.875
0
LWPOLYLINE
5
239
100
AcDbEntity
8
0
100
AcDbPolyline
90
4
70
1
43
0.0
10
397.5
20
520.5
10
393.87499999999994
20
520.5
10
393.87499999999994
20
516.875
10
397.5
20
516.875
0
LWPOLYLINE
5
240
100
AcDbEntity
8
0
100
AcDbPolyline
90
4
70
1
43
0.0
10
344.12499999999994
20
513.375
10
340.5
20
513.375
10
340.5
20
509.75
10
344.12499999999994
20
509.75
0
LWPOLYLINE
5
241
100
AcDbEntity
8
0
100
AcDbPolyline
90
4
70
1
43
0.0
10
351.75
20
513.375
10
348.125
20
513.375
10
348.125
20
509.75
10
351.75
20
509.75
0
LWPOLYLINE
5
242
100
AcDbEntity
8
0
100
AcDbPolyline
90
4
70
1
43
0.0
10
359.375
20
513.375
10
355.74999999999994
20
513.375
10
355.74999999999994
20
509.75
10
359.375
20
509.75
0
LWPOLYLINE
5
243
100
AcDbEntity
8
0
100
AcDbPolyline
90
4
70
1
43
0.0
10
366.99999999999994
20
513.375
10
363.375
20
513.375
10
363.375
20
509.75
10
366.99999999999994
20
509.75
0
LWPOLYLINE
5
244
100
AcDbEntity
8
0
100
AcDbPolyline
90
4
70
1
43
0.0
10
374.625
20
513.375
10
370.99999999999994
20
513.375
10
370.99999999999994
20
509.75
10
374.625
20
509.75
0
LWPOLYLINE
5
245
100
AcDbEntity
8
0
100
AcDbPolyline
90
4
70
1
43
0.0
10
382.24999999999994
20
513.375
10
378.625
20
513.375
10
378.625
20
509.75
10
382.24999999999994
20
509.75
0
LWPOLYLINE
5
246
100
AcDbEntity
8
0
100
AcDbPolyline
90
4
70
1
43
0.0
10
389.875
20
513.375
10
386.25
20
513.375
10
386.25
20
509.75
10
389.875
20
509.75
0
LWPOLYLINE
5
247
100
AcDbEntity
8
0
100
AcDbPolyline
90
4
70
1
43
0.0
10
397.5
20
513.375
10
393.87499999999994
20
513.375
10
393.87499999999994
20
509.75
10
397.5
20
509.75
0
LWPOLYLINE
5
248
100
AcDbEntity
8
0
100
AcDbPolyline
90
4
70
1
43
0.0
10
344.12499999999994
20
506.25
10
340.5
20
506.25
10
340.5
20
502.625
10
344.12499999999994
20
502.625
0
LWPOLYLINE
5
249
100
AcDbEntity
8
0
100
AcDbPolyline
90
4
70
1
43
0.0
10
351.75
20
506.25
10
348.125
20
506.25
10
348.125
20
502.625
10
351.75
20
502.625
0
LWPOLYLINE
5
250
100
AcDbEntity
8
0
100
AcDbPolyline
90
4
70
1
43
0.0
10
359.375
20
506.25
10
355.74999999999994
20
506.25
10
355.74999999999994
20
502.625
10
359.375
20
502.625
0
LWPOLYLINE
5
251
100
AcDbEntity
8
0
100
AcDbPolyline
90
4
70
1
43
0.0
10
366.99999999999994
20
506.25
10
363.375
20
506.25
10
363.375
20
502.625
10
366.99999999999994
20
502.625
0
LWPOLYLINE
5
252
100
AcDbEntity
8
0
100
AcDbPolyline
90
4
70
1
43
0.0
10
374.625
20
506.25
10
370.99999999999994
20
506.25
10
370.99999999999994
20
502.625
10
374.625
20
502.625
0
LWPOLYLINE
5
253
100
AcDbEntity
8
0
100
AcDbPolyline
90
4
70
1
43
0.0
10
382.24999999999994
20
506.25
10
378.625
20
506.25
10
378.625
20
502.625
10
382.24999999999994
20
502.625
0
LWPOLYLINE
5
254
100
AcDbEntity
8
0
100
AcDbPolyline
90
4
70
1
43
0.0
10
389.875
20
506.25
10
386.25
20
506.25
10
386.25
20
502.625
10
389.875
20
502.625
0
LWPOLYLINE
5
255
100
AcDbEntity
8
0
100
AcDbPolyline
90
4
70
1
43
0.0
10
397.5
20
506.25
10
393.87499999999994
20
506.25
10
393.87499999999994
20
502.625
10
397.5
20
502.625
0
LWPOLYLINE
5
256
100
AcDbEntity
8
0
100
AcDbPolyline
90
4
70
1
43
0.0
10
344.12499999999994
20
499.125
10
340.5
20
499.125
10
340.5
20
495.50000000000006
10
344.12499999999994
20
495.50000000000006
0
LWPOLYLINE
5
257
100
AcDbEntity
8
0
100
AcDbPolyline
90
4
70
1
43
0.0
10
351.75
20
499.125
10
348.125
20
499.125
10
348.125
20
495.50000000000006
10
351.75
20
495.50000000000006
0
LWPOLYLINE
5
258
100
AcDbEntity
8
0
100
AcDbPolyline
90
4
70
1
43
0.0
10
359.375
20
499.125
10
355.74999999999994
20
499.125
10
355.74999999999994
20
495.50000000000006
10
359.375
20
495.50000000000006
0
LWPOLYLINE
5
259
100
AcDbEntity
8
0
100
AcDbPolyline
90
4
70
1
43
0.0
10
366.99999999999994
20
499.125
10
363.375
20
499.125
10
363.375
20
495.50000000000006
10
366.99999999999994
20
495.50000000000006
0
LWPOLYLINE
5
260
100
AcDbEntity
8
0
100
AcDbPolyline
90
4
70
1
43
0.0
10
374.625
20
499.125
10
370.99999999999994
20
499.125
10
370.99999999999994
20
495.50000000000006
10
374.625
20
495.50000000000006
0
LWPOLYLINE
5
261
100
AcDbEntity
8
0
100
AcDbPolyline
90
4
70
1
43
0.0
10
382.24999999999994
20
499.125
10
378.625
20
499.125
10
378.625
20
495.50000000000006
10
382.24999999999994
20
495.50000000000006
0
LWPOLYLINE
5
262
100
AcDbEntity
8
0
100
AcDbPolyline
90
4
70
1
43
0.0
10
389.875
20
499.125
10
386.25
20
499.125
10
386.25
20
495.50000000000006
10
389.875
20
495.50000000000006
0
LWPOLYLINE
5
263
100
AcDbEntity
8
0
100
AcDbPolyline
90
4
70
1
43
0.0
10
397.5
20
499.125
10
393.87499999999994
20
499.125
10
393.87499999999994
20
495.50000000000006
10
397.5
20
495.50000000000006
0
LWPOLYLINE
5
264
100
AcDbEntity
8
0
100
AcDbPolyline
90
4
70
1
43
0.0
10
344.12499999999994
20
491.99999999999994
10
340.5
20
491.99999999999994
10
340.5
20
488.375
10
344.12499999999994
20
488.375
0
LWPOLYLINE
5
265
100
AcDbEntity
8
0
100
AcDbPolyline
90
4
70
1
43
0.0
10
351.75
20
491.99999999999994
10
348.125
20
491.99999999999994
10
348.125
20
488.375
10
351.75
20
488.375
0
LWPOLYLINE
5
266
100
AcDbEntity
8
0
100
AcDbPolyline
90
4
70
1
43
0.0
10
359.375
20
491.99999999999994
10
355.74999999999994
20
491.99999999999994
10
355.74999999999994
20
488.375
10
359.375
20
488.375
0
LWPOLYLINE
5
267
100
AcDbEntity
8
0
100
AcDbPolyline
90
4
70
1
43
0.0
10
366.99999999999994
20
491.99999999999994
10
363.375
20
491.99999999999994
10
363.375
20
488.375
10
366.99999999999994
20
488.375
0
LWPOLYLINE
5
268
100
AcDbEntity
8
0
100
AcDbPolyline
90
4
70
1
43
0.0
10
374.625
20
491.99999999999994
10
370.99999999999994
20
491.99999999999994
10
370.99999999999994
20
488.375
10
374.625
20
488.375
0
LWPOLYLINE
5
269
100
AcDbEntity
8
0
100
AcDbPolyline
90
4
70
1
43
0.0
10
382.24999999999994
20
491.99999999999994
10
378.625
20
491.99999999999994
10
378.625
20
488.375
10
382.24999999999994
20
488.375
0
LWPOLYLINE
5
270
100
AcDbEntity
8
0
100
AcDbPolyline
90
4
70
1
43
0.0
10
389.875
20
491.99999999999994
10
386.25
20
491.99999999999994
10
386.25
20
488.375
10
389.875
20
488.375
0
LWPOLYLINE
5
271
100
AcDbEntity
8
0
100
AcDbPolyline
90
4
70
1
43
0.0
10
397.5
20
491.99999999999994
10
393.87499999999994
20
491.99999999999994
10
393.87499999999994
20
488.375
10
397.5
20
488.375
0
LWPOLYLINE
5
272
100
AcDbEntity
8
0
100
AcDbPolyline
90
4
70
1
43
0.0
10
344.12499999999994
20
484.875
10
340.5
20
484.875
10
340.5
20
481.25
10
344.12499999999994
20
481.25
0
LWPOLYLINE
5
273
100
AcDbEntity
8
0
100
AcDbPolyline
90
4
70
1
43
0.0
10
351.75
20
484.875
10
348.125
20
484.875
10
348.125
20
481.25
10
351.75
20
481.25
0
LWPOLYLINE
5
274
100
AcDbEntity
8
0
100
AcDbPolyline
90
4
70
1
43
0.0
10
359.375
20
484.875
10
355.74999999999994
20
484.875
10
355.74999999999994
20
481.25
10
359.375
20
481.25
0
LWPOLYLINE
5
275
100
AcDbEntity
8
0
100
AcDbPolyline
90
4
70
1
43
0.0
10
366.99999999999994
20
484.875
10
363.375
20
484.875
10
363.375
20
481.25
10
366.99999999999994
20
481.25
0
LWPOLYLINE
5
276
100
AcDbEntity
8
0
100
AcDbPolyline
90
4
70
1
43
0.0
10
374.625
20
484.875
10
370.99999999999994
20
484.875
10
370.99999999999994
20
481.25
10
374.625
20
481.25
0
LWPOLYLINE
5
277
100
AcDbEntity
8
0
100
AcDbPolyline
90
4
70
1
43
0.0
10
382.24999999999994
20
484.875
10
378.625
20
484.875
10
378.625
20
481.25
10
382.24999999999994
20
481.25
0
LWPOLYLINE
5
278
100
AcDbEntity
8
0
100
AcDbPolyline
90
4
70
1
43
0.0
10
389.875
20
484.875
10
386.25
20
484.875
10
386.25
20
481.25
10
389.875
20
481.25
0
LWPOLYLINE
5
279
100
AcDbEntity
8
0
100
AcDbPolyline
90
4
70
1
43
0.0
10
397.5
20
484.875
10
393.87499999999994
20
484.875
10
393.87499999999994
20
481.25
10
397.5
20
481.25
0
LWPOLYLINE
5
280
100
AcDbEntity
8
0
100
AcDbPolyline
90
4
70
1
43
0.0
10
344.12499999999994
20
477.75
10
340.5
20
477.75
10
340.5
20
474.125
10
344.12499999999994
20
474.125
0
LWPOLYLINE
5
281
100
AcDbEntity
8
0
100
AcDbPolyline
90
4
70
1
43
0.0
10
351.75
20
477.75
10
348.125
20
477.75
10
348.125
20
474.125
10
351.75
20
474.125
0
LWPOLYLINE
5
282
100
AcDbEntity
8
0
100
AcDbPolyline
90
4
70
1
43
0.0
10
359.375
20
477.75
10
355.74999999999994
20
477.75
10
355.74999999999994
20
474.125
10
359.375
20
474.125
0
LWPOLYLINE
5
283
100
AcDbEntity
8
0
100
AcDbPolyline
90
4
70
1
43
0.0
10
366.99999999999994
20
477.75
10
363.375
20
477.75
10
363.375
20
474.125
10
366.99999999999994
20
474.125
0
LWPOLYLINE
5
284
100
AcDbEntity
8
0
100
AcDbPolyline
90
4
70
1
43
0.0
10
374.625
20
477.75
10
370.99999999999994
20
477.75
10
370.99999999999994
20
474.125
10
374.625
20
474.125
0
LWPOLYLINE
5
285
100
AcDbEntity
8
0
100
AcDbPolyline
90
4
70
1
43
0.0
10
382.24999999999994
20
477.75
10
378.625
20
477.75
10
378.625
20
474.125
10
382.24999999999994
20
474.125
0
LWPOLYLINE
5
286
100
AcDbEntity
8
0
100
AcDbPolyline
90
4
70
1
43
0.0
10
389.875
20
477.75
10
386.25
20
477.75
10
386.25
20
474.125
10
389.875
20
474.125
0
LWPOLYLINE
5
287
100
AcDbEntity
8
0
100
AcDbPolyline
90
4
70
1
43
0.0
10
397.5
20
477.75
10
393.87499999999994
20
477.75
10
393.87499999999994
20
474.125
10
397.5
20
474.125
0
LWPOLYLINE
5
288
100
AcDbEntity
8
0
100
AcDbPolyline
90
4
70
1
43
0.0
10
344.12499999999994
20
470.625
10
340.5
20
470.625
10
340.5
20
467
10
344.12499999999994
20
467
0
LWPOLYLINE
5
289
100
AcDbEntity
8
0
100
AcDbPolyline
90
4
70
1
43
0.0
10
351.75
20
470.625
10
348.125
20
470.625
10
348.125
20
467
10
351.75
20
467
0
LWPOLYLINE
5
290
100
AcDbEntity
8
0
100
AcDbPolyline
90
4
70
1
43
0.0
10
359.375
20
470.625
10
355.74999999999994
20
470.625
10
355.74999999999994
20
467
10
359.375
20
467
0
LWPOLYLINE
5
291
100
AcDbEntity
8
0
100
AcDbPolyline
90
4
70
1
43
0.0
10
366.99999999999994
20
470.625
10
363.375
20
470.625
10
363.375
20
467
10
366.99999999999994
20
467
0
LWPOLYLINE
5
292
100
AcDbEntity
8
0
100
AcDbPolyline
90
4
70
1
43
0.0
10
374.625
20
470.625
10
370.99999999999994
20
470.625
10
370.99999999999994
20
467
10
374.625
20
467
0
LWPOLYLINE
5
293
100
AcDbEntity
8
0
100
AcDbPolyline
90
4
70
1
43
0.0
10
382.24999999999994
20
470.625
10
378.625
20
470.625
10
378.625
20
467
10
382.24999999999994
20
467
0
LWPOLYLINE
5
294
100
AcDbEntity
8
0
100
AcDbPolyline
90
4
70
1
43
0.0
10
389.875
20
470.625
10
386.25
20
470.625
10
386.25
20
467
10
389.875
20
467
0
LWPOLYLINE
5
295
100
AcDbEntity
8
0
100
AcDbPolyline
90
4
70
1
43
0.0
10
397.5
20
470.625
10
393.87499999999994
20
470.625
10
393.87499999999994
20
467
10
397.5
20
467
0
LINE
5
296
100
AcDbEntity
8
0
100
AcDbLine
10
328.49999999999994
20
525.00000812113285
30
0
11
331.49999187886704
21
528
31
0
0
ENDSEC
0
SECTION
2
OBJECTS
0
DICTIONARY
5
C
100
AcDbDictionary
3
ACAD_GROUP
350
D
3
ACAD_MLINESTYLE
350
17
0
DICTIONARY
5
D
100
AcDbDictionary
0
DICTIONARY
5
1A
330
C
100
AcDbDictionary
0
DICTIONARY
5
17
100
AcDbDictionary
0
ENDSEC
0
EOF
